<svg xmlns="http://www.w3.org/2000/svg" viewBox="0 0 320 520" role="img" aria-labelledby="title desc"><title id="title">Soybean — Emergence</title><desc id="desc">LOAM botanical vector study. Based on soybean plate 171, illustration label 09, BBCH ENGLISCH_.pdf. Stylized anatomy, not a tracing. Soil line at y=400.</desc><g id="soil"><path d="M60 400 Q107 393 158 400 Q211 396 260 401" fill="none" stroke="#9c7655" stroke-width="2" stroke-linecap="round" stroke-linejoin="round" /><circle cx="74" cy="411" r="1.8" fill="#ab8967" opacity=".45"/><circle cx="103" cy="420" r="1.2" fill="#ab8967" opacity=".45"/><circle cx="124" cy="409" r="1.6" fill="#ab8967" opacity=".45"/><circle cx="186" cy="413" r="1.5" fill="#ab8967" opacity=".45"/><circle cx="223" cy="419" r="1.8" fill="#ab8967" opacity=".45"/><circle cx="249" cy="409" r="1.1" fill="#ab8967" opacity=".45"/></g><g id="plant"><g id="roots"><path d="M160 400 C158 424 169 447.75 157 485" fill="none" stroke="#bda47b" stroke-width="3" stroke-linecap="round" stroke-linejoin="round" /><path d="M160 414.0 Q150.64 418.0 144.4 433.0 l-4 10" fill="none" stroke="#bda47b" stroke-width="1.6" stroke-linecap="round" stroke-linejoin="round" /><path d="M160 414.0 Q169.36 418.0 175.6 433.0 l4 10" fill="none" stroke="#bda47b" stroke-width="1.6" stroke-linecap="round" stroke-linejoin="round" /><path d="M160 425.9 Q151.72 429.9 146.2 444.9 l-4 10" fill="none" stroke="#bda47b" stroke-width="1.6" stroke-linecap="round" stroke-linejoin="round" /><path d="M160 425.9 Q168.28 429.9 173.8 444.9 l4 10" fill="none" stroke="#bda47b" stroke-width="1.6" stroke-linecap="round" stroke-linejoin="round" /><path d="M160 437.8 Q152.8 441.8 148.0 456.8 l-4 10" fill="none" stroke="#bda47b" stroke-width="1.6" stroke-linecap="round" stroke-linejoin="round" /><path d="M160 437.8 Q167.2 441.8 172.0 456.8 l4 10" fill="none" stroke="#bda47b" stroke-width="1.6" stroke-linecap="round" stroke-linejoin="round" /><path d="M160 449.7 Q153.88 453.7 149.8 468.7 l-4 10" fill="none" stroke="#bda47b" stroke-width="1.6" stroke-linecap="round" stroke-linejoin="round" /><path d="M160 449.7 Q166.12 453.7 170.2 468.7 l4 10" fill="none" stroke="#bda47b" stroke-width="1.6" stroke-linecap="round" stroke-linejoin="round" /><path d="M160 461.6 Q154.96 465.6 151.6 480.6 l-4 10" fill="none" stroke="#bda47b" stroke-width="1.6" stroke-linecap="round" stroke-linejoin="round" /><path d="M160 461.6 Q165.04 465.6 168.4 480.6 l4 10" fill="none" stroke="#bda47b" stroke-width="1.6" stroke-linecap="round" stroke-linejoin="round" /></g><path d="M160 401 L160 372 C159 333 190 336 189 368 L183 388" fill="none" stroke="#6c8548" stroke-width="7" stroke-linecap="round" stroke-linejoin="round" /><path d="M161 392 L162 369 C163 349 179 344 183 358" fill="none" stroke="#b4c97b" stroke-width="2" stroke-linecap="round" stroke-linejoin="round" /><g transform="translate(186 389) rotate(76)"><path d="M-20 -13 C-9 -26 13 -24 23 -10 C35 8 16 24 -3 21 C-25 19 -31 1 -20 -13Z" fill="#d7b67c" stroke="#785c38" stroke-width="2" stroke-linecap="round" stroke-linejoin="round" /><path d="M-19 -9 C-9 -19 8 -18 17 -10" fill="none" stroke="#ecd6a4" stroke-width="4" stroke-linecap="round" stroke-linejoin="round" /><path d="M-7 7 Q2 13 12 5" fill="none" stroke="#8f6d40" stroke-width="3" stroke-linecap="round" stroke-linejoin="round" /><path d="M-18 -15 Q-4 -1 -7 19" fill="none" stroke="#85673d" stroke-width="1.7" stroke-linecap="round" stroke-linejoin="round" /></g></g></svg>